<?xml version="1.0" standalone="no"?>
<!DOCTYPE svg PUBLIC "-//W3C//DTD SVG 20010904//EN"
 "http://www.w3.org/TR/2001/REC-SVG-20010904/DTD/svg10.dtd">
<svg version="1.0" xmlns="http://www.w3.org/2000/svg"
 width="700.000000pt" height="700.000000pt" viewBox="0 0 700.000000 700.000000"
 preserveAspectRatio="xMidYMid meet">
<metadata>
Created by potrace 1.14, written by Peter Selinger 2001-2017
</metadata>
<g transform="translate(0.000000,700.000000) scale(0.100000,-0.100000)"
fill="#000000" stroke="none">
<path d="M3280 6994 c-19 -2 -84 -9 -145 -14 -639 -62 -1264 -315 -1795 -726
-149 -115 -481 -446 -595 -594 -410 -532 -653 -1132 -727 -1795 -17 -155 -17
-575 0 -730 75 -673 332 -1300 748 -1820 114 -143 339 -372 484 -494 537 -451
1163 -717 1885 -803 142 -17 586 -17 730 0 682 79 1268 318 1802 734 138 107
389 351 512 498 451 538 717 1162 803 1885 16 139 16 595 0 730 -77 629 -275
1158 -620 1649 -234 333 -577 668 -917 896 -460 308 -968 495 -1535 566 -117
15 -552 27 -630 18z m2405 -1639 c189 -49 315 -172 315 -309 0 -116 -100 -217
-230 -233 -115 -14 -164 20 -228 156 -61 131 -117 216 -150 230 -56 23 -114
-24 -151 -122 -18 -49 -131 -592 -131 -631 0 -14 23 -16 200 -16 131 0 200 -4
200 -10 0 -6 -10 -49 -21 -95 l-21 -85 -204 0 c-112 0 -204 -2 -204 -4 0 -15
-324 -1595 -341 -1659 -116 -457 -388 -786 -712 -862 -34 -8 -108 -15 -164
-15 -334 0 -527 143 -442 329 31 70 84 127 144 156 96 47 151 19 225 -115 43
-77 125 -166 163 -176 37 -9 61 14 86 80 33 89 204 921 394 1926 l64 335 -300
3 c-165 1 -302 1 -303 -1 -2 -2 -85 -359 -183 -794 -206 -905 -208 -915 -257
-1053 -177 -511 -535 -797 -958 -766 -219 15 -378 90 -431 202 -40 84 -8 190
87 285 62 62 120 89 190 89 77 0 104 -25 175 -163 71 -135 151 -227 199 -227
58 0 78 40 133 277 101 429 441 2075 441 2136 0 15 -15 17 -166 17 -142 0
-165 2 -161 15 4 8 16 50 28 94 l22 81 164 2 165 3 23 90 c122 471 346 709
750 797 96 21 385 17 465 -6 97 -28 204 -83 256 -132 l47 -43 42 38 c100 92
287 172 455 195 65 8 264 -3 325 -19z m-3088 -1202 c-4 -767 -4 -768 -56 -916
-84 -241 -274 -377 -582 -417 -144 -18 -321 -9 -455 25 -85 22 -210 86 -271
140 -108 95 -188 256 -220 442 -8 51 -13 96 -11 99 5 4 439 64 469 64 13 0 19
-17 28 -77 25 -167 83 -232 214 -241 121 -7 197 27 235 107 15 33 17 101 20
764 l3 727 315 0 315 0 -4 -717z"/>
<path d="M4262 5152 c-141 -51 -236 -202 -308 -492 -19 -74 -37 -156 -40 -183
l-7 -47 309 2 308 3 14 50 c7 28 28 102 47 166 l34 116 -18 90 c-31 149 -78
233 -156 278 -58 34 -118 40 -183 17z"/>
</g>
</svg>
