<?xml version="1.0" standalone="no"?>
<!DOCTYPE svg PUBLIC "-//W3C//DTD SVG 20010904//EN"
 "http://www.w3.org/TR/2001/REC-SVG-20010904/DTD/svg10.dtd">
<svg version="1.0" xmlns="http://www.w3.org/2000/svg"
 width="260.000000pt" height="260.000000pt" viewBox="0 0 260.000000 260.000000"
 preserveAspectRatio="xMidYMid meet">
<metadata>
Created by potrace 1.14, written by Peter Selinger 2001-2017
</metadata>
<g transform="translate(0.000000,260.000000) scale(0.100000,-0.100000)"
fill="#000000" stroke="none">
<path d="M1280 2129 c0 -36 -72 -804 -75 -807 -3 -3 -5 -1 -5 4 2 41 -55 651
-61 658 -7 8 -1003 -74 -1020 -84 -9 -6 104 -1337 115 -1347 3 -4 199 10 434
30 235 21 439 37 454 37 26 0 26 -1 21 -55 -5 -52 -5 -55 17 -55 12 0 279 -23
593 -50 313 -28 571 -49 572 -48 7 8 142 1604 137 1609 -4 3 -252 27 -552 53
-300 26 -564 49 -587 52 -24 4 -43 5 -43 3z m445 -314 c233 -21 312 -48 385
-131 82 -94 116 -226 107 -419 -17 -359 -163 -545 -426 -545 -82 0 -391 27
-399 34 -5 6 87 1067 94 1078 2 3 19 5 37 2 17 -2 109 -11 202 -19z m-771
-415 c15 -173 26 -333 26 -355 -1 -48 -31 -119 -68 -158 -84 -89 -289 -121
-399 -63 -57 30 -143 142 -143 187 0 11 22 22 74 38 41 11 81 24 89 26 9 4 20
-8 32 -35 34 -75 97 -100 164 -65 51 26 53 52 30 329 -12 138 -23 253 -25 255
-2 2 -67 -1 -145 -8 -78 -7 -143 -10 -147 -7 -4 4 -20 149 -17 157 0 0 110 10
245 22 218 20 246 21 252 7 3 -8 18 -157 32 -330z"/>
<path d="M1695 1578 c-9 -79 -55 -618 -55 -645 0 -22 3 -23 90 -23 179 0 215
55 241 358 22 268 -17 338 -203 357 l-66 6 -7 -53z"/>
</g>
</svg>
