<svg width="25" height="24" viewBox="0 0 25 24" fill="none" xmlns="http://www.w3.org/2000/svg">
<path d="M8.61789 19.3248C8.61789 19.424 8.50375 19.5034 8.35983 19.5034C8.19606 19.5183 8.08192 19.4389 8.08192 19.3248C8.08192 19.2255 8.19606 19.1461 8.33998 19.1461C8.48886 19.1312 8.61789 19.2106 8.61789 19.3248ZM7.07449 19.1014C7.03975 19.2007 7.139 19.3148 7.28789 19.3446C7.41692 19.3942 7.5658 19.3446 7.59557 19.2454C7.62535 19.1461 7.53106 19.032 7.38218 18.9873C7.25315 18.9526 7.10923 19.0022 7.07449 19.1014ZM9.268 19.0171C9.12409 19.0518 9.02483 19.1461 9.03972 19.2603C9.05461 19.3595 9.18364 19.424 9.33252 19.3893C9.47644 19.3545 9.57569 19.2603 9.5608 19.161C9.54591 19.0667 9.41192 19.0022 9.268 19.0171ZM12.5335 0C5.65019 0 0.384766 5.22573 0.384766 12.109C0.384766 17.6126 3.84873 22.3222 8.79655 23.9798C9.43177 24.0939 9.65509 23.7019 9.65509 23.3793C9.65509 23.0716 9.64021 21.3744 9.64021 20.3322C9.64021 20.3322 6.16631 21.0766 5.4368 18.8533C5.4368 18.8533 4.87105 17.4092 4.05717 17.037C4.05717 17.037 2.92071 16.2578 4.13657 16.2727C4.13657 16.2727 5.37228 16.372 6.05217 17.5531C7.139 19.4687 8.96032 18.9178 9.66998 18.5903C9.78413 17.7963 10.1067 17.2454 10.464 16.9179C7.68986 16.6102 4.8909 16.2082 4.8909 11.4341C4.8909 10.0693 5.26807 9.38447 6.0621 8.51104C5.93307 8.18846 5.51124 6.85846 6.19113 5.14136C7.22833 4.81878 9.61539 6.48129 9.61539 6.48129C10.6079 6.20338 11.6749 6.05946 12.732 6.05946C13.789 6.05946 14.856 6.20338 15.8485 6.48129C15.8485 6.48129 18.2356 4.81382 19.2728 5.14136C19.9527 6.86342 19.5309 8.18846 19.4018 8.51104C20.1959 9.38943 20.6822 10.0743 20.6822 11.4341C20.6822 16.2231 17.7592 16.6052 14.985 16.9179C15.4416 17.3099 15.8287 18.0543 15.8287 19.2205C15.8287 20.893 15.8138 22.9624 15.8138 23.3694C15.8138 23.6919 16.0421 24.084 16.6724 23.9699C21.6351 22.3222 24.9998 17.6126 24.9998 12.109C24.9998 5.22573 19.4167 0 12.5335 0ZM5.20851 17.1164C5.144 17.166 5.15889 17.2801 5.24325 17.3744C5.32266 17.4538 5.4368 17.4886 5.50131 17.424C5.56583 17.3744 5.55094 17.2603 5.46657 17.166C5.38717 17.0866 5.27303 17.0518 5.20851 17.1164ZM4.67254 16.7144C4.6378 16.7789 4.68743 16.8583 4.78668 16.9079C4.86609 16.9576 4.96534 16.9427 5.00008 16.8732C5.03482 16.8087 4.98519 16.7293 4.88594 16.6796C4.78668 16.6499 4.70728 16.6648 4.67254 16.7144ZM6.28046 18.4811C6.20105 18.5456 6.23083 18.6945 6.34497 18.7888C6.45911 18.9029 6.60303 18.9178 6.66755 18.8384C6.73206 18.7739 6.70229 18.625 6.60303 18.5307C6.49385 18.4166 6.34497 18.4017 6.28046 18.4811ZM5.71471 17.7516C5.63531 17.8012 5.63531 17.9302 5.71471 18.0444C5.79411 18.1585 5.9281 18.2082 5.99262 18.1585C6.07202 18.094 6.07202 17.965 5.99262 17.8508C5.92314 17.7367 5.79411 17.6871 5.71471 17.7516Z" fill="#ECECEC"/>
</svg>
