<svg width="24" height="24" viewBox="0 0 24 24" fill="none" xmlns="http://www.w3.org/2000/svg">
<path d="M23.5447 7.48611L12.5759 0.173585C12.2015 -0.0568059 11.8019 -0.0589153 11.4241 0.173585L0.455345 7.48611C0.174094 7.67356 0 8.00844 0 8.34322V15.6557C0 15.9905 0.174094 16.3254 0.455392 16.5129L11.4242 23.8264C11.7986 24.0568 12.1981 24.0589 12.5759 23.8264L23.5447 16.5129C23.826 16.3254 24.0001 15.9905 24.0001 15.6557V8.34322C24.0001 8.00844 23.826 7.67356 23.5447 7.48611ZM13.0313 2.95924L21.1072 8.34322L17.5045 10.754L13.0313 7.76731V2.95924ZM10.9688 2.95924V7.76731L6.49554 10.754L2.89285 8.34322L10.9688 2.95924ZM2.06251 10.2718L4.64734 11.9995L2.06251 13.7272V10.2718ZM10.9688 21.0397L2.89285 15.6557L6.49554 13.245L10.9688 16.2317V21.0397ZM12 14.437L8.35714 11.9995L12 9.56198L15.6429 11.9995L12 14.437ZM13.0313 21.0397V16.2317L17.5045 13.245L21.1072 15.6557L13.0313 21.0397ZM21.9376 13.7272L19.3527 11.9995L21.9376 10.2718V13.7272Z" fill="#ECECEC"/>
</svg>
