<svg width="24" height="24" viewBox="0 0 24 24" fill="none" xmlns="http://www.w3.org/2000/svg">
<path d="M12 0C5.38316 0 0 5.38316 0 12C0 18.6168 5.38316 24 12 24C18.6168 24 24 18.6168 24 12C24 5.38316 18.6168 0 12 0ZM19.934 5.53384C21.3616 7.278 22.2261 9.4995 22.2486 11.9188C21.9107 11.8473 18.522 11.16 15.1114 11.5889C14.8331 10.9095 14.5704 10.3118 14.2106 9.57527C18.0003 8.028 19.7179 5.82614 19.934 5.53384ZM18.7946 4.34855C18.6102 4.61115 17.0673 6.68497 13.4226 8.05108C11.743 4.96515 9.88137 2.43005 9.59806 2.05069C12.8485 1.26716 16.2738 2.11215 18.7946 4.34855ZM7.64231 2.73968C7.91255 3.11027 9.74414 5.64852 11.4425 8.66753C6.64795 9.94074 2.42506 9.9224 1.96665 9.91635C2.63129 6.73573 4.77474 4.09224 7.64231 2.73968ZM1.75016 12.0156C1.75016 11.9108 1.75224 11.8065 1.75539 11.7024C2.20384 11.7116 7.17087 11.7756 12.2895 10.2437C12.583 10.818 12.8633 11.4009 13.1205 11.9832C9.41414 13.0272 6.04665 16.0248 4.38518 18.869C2.7481 17.0519 1.75016 14.6482 1.75016 12.0156ZM5.70856 20.1017C6.77923 17.913 9.68492 15.0878 13.8172 13.6781C15.2563 17.4176 15.8514 20.5516 16.0038 21.4509C12.708 22.8547 8.745 22.4696 5.70856 20.1017ZM17.727 20.5125C17.6219 19.889 17.0763 16.8885 15.7357 13.2045C18.9477 12.6903 21.7696 13.5319 22.1203 13.6426C21.6634 16.4946 20.0264 18.9576 17.727 20.5125Z" fill="#ECECEC"/>
</svg>
